{"title":"Inkaar 2013 Hindi DVDRip XviD ESubs 6ch New Source Sample Includ","uid":8173015,"size":729696284,"categoryP":"video","categoryS":"movies","magnet":"?xt=urn:btih:475184c43bb48c28db5cc1108cf683c59d0e1116&amp;dn=Inkaar+2013+Hindi+DVDRip+XviD+ESubs+6ch+New+Source+Sample+Includ&amp;tr=udp%3A%2F%2Ftracker.openbittorrent.com%3A80&amp;tr=udp%3A%2F%2Fopen.demonii.com%3A1337&amp;tr=udp%3A%2F%2Ftracker.coppersurfer.tk%3A6969&amp;tr=udp%3A%2F%2Fexodus.desync.com%3A6969","seeders":0,"leechers":1,"uploader":"basicssom","files":3,"time":1361464051,"description":"Inkaar 2013 Hindi Movies DVDRip XviD ESubs 6ch New Source Sample Included ~ rDX\n\nScreen Shots :\n &lt;a href=&quot;\nhttp://myimghosting.serveftp.com/13/InkaarHD.html&quot; rel=&quot;nofollow&quot; target=&quot;_NEW&quot;&gt;\nhttp://myimghosting.serveftp.com/13/InkaarHD.html&lt;/a&gt;\n &lt;a href=&quot;\nhttp://myimghost.cwahi.net/InkaarHD.html&quot; rel=&quot;nofollow&quot; target=&quot;_NEW&quot;&gt;\nhttp://myimghost.cwahi.net/InkaarHD.html&lt;/a&gt;\n\n\nFormat                                   : AVI\nFormat/Info                              : Audio Video Interleave\nFile size                                : 687 MiB\nDuration                                 : 2h 4mn\nOverall bit rate mode                    : Variable\nOverall bit rate                         : 768 Kbps\nWriting library                          : MPlayer\n\nVideo\nID                                       : 0\nFormat                                   : MPEG-4 Visual\nFormat profile                           : Advanced Simple@L5\nFormat settings, BVOP                    : 1\nFormat settings, QPel                    : No\nFormat settings, GMC                     : No warppoints\nFormat settings, Matrix                  : Custom\nCodec ID                                 : XVID\nCodec ID/Hint                            : XviD\nDuration                                 : 2h 4mn\nBit rate                                 : 669 Kbps\nWidth                                    : 640 pixels\nHeight                                   : 272 pixels\nDisplay aspect ratio                     : 2.35:1\nFrame rate                               : 23.976 fps\nColor space                              : YUV\nChroma subsampling                       : 4:2:0\nBit depth                                : 8 bits\nScan type                                : Progressive\nCompression mode                         : Lossy\nBits/(Pixel*Frame)                       : 0.160\nStream size                              : 598 MiB (87%)\nWriting library                          : XviD 1.2.1 (UTC 2008-12-04)\n\nAudio\nID                                       : 1\nFormat                                   : MPEG Audio\nFormat version                           : Version 1\nFormat profile                           : Layer 3\nMode                                     : Joint stereo\nMode extension                           : MS Stereo\nCodec ID                                 : 55\nCodec ID/Hint                            : MP3\nDuration                                 : 2h 4mn\nBit rate mode                            : Variable\nBit rate                                 : 89.2 Kbps\nChannel(s)                               : 2 channels\nSampling rate                            : 32.0 KHz\nCompression mode                         : Lossy\nStream size                              : 79.7 MiB (12%)\nAlignment                                : Aligned on interleaves\nInterleave, duration                     : 36 ms (0.86 video frame)\nInterleave, preload duration             : 361 ms","torrent":{"xt":"urn:btih:475184c43bb48c28db5cc1108cf683c59d0e1116","amp;dn":"Inkaar+2013+Hindi+DVDRip+XviD+ESubs+6ch+New+Source+Sample+Includ","amp;tr":["udp%3A%2F%2Ftracker.openbittorrent.com%3A80","udp%3A%2F%2Fopen.demonii.com%3A1337","udp%3A%2F%2Ftracker.coppersurfer.tk%3A6969","udp%3A%2F%2Fexodus.desync.com%3A6969"],"infoHash":"475184c43bb48c28db5cc1108cf683c59d0e1116","infoHashBuffer":{"type":"Buffer","data":[71,81,132,196,59,180,140,40,219,92,193,16,140,246,131,197,157,14,17,22]},"announce":[],"urlList":[]}}